<svg width="1422" height="301" viewBox="0 0 1422 301" fill="none" xmlns="http://www.w3.org/2000/svg">
<path d="M0.753052 301H48.2848L48.5317 214.445H1L0.753052 301ZM81.953 301H707.788V214.692L82.1999 214.445L81.953 301ZM756.903 214.742C756.704 214.938 756.556 252.5 756.556 252.5L756.309 301H768.688V214.692L762.943 214.543C759.824 214.493 757.102 214.594 756.903 214.742ZM794.435 301H818.2L818.447 214.445H794.681L794.435 301ZM844.54 214.79C844.341 214.938 844.192 262 844.192 262L843.945 301H899.4L899.647 214.445H872.266C857.165 214.445 844.688 214.593 844.54 214.79ZM925.739 214.742C925.542 214.938 925.394 268 925.394 268L925.147 301H937.524V214.692L931.781 214.543C928.661 214.493 925.938 214.594 925.739 214.742ZM963.271 301H1018.72L1018.72 214.692L991.145 214.543L963.518 214.445L963.271 301ZM1044.47 301H1179.64L1179.64 214.692L1044.72 214.445L1044.47 301ZM1286.58 301H1421.75V214.692L1286.83 214.445L1286.58 301Z" fill="#534FFC"/>
<path d="M5.53526 196.726V190.996C13.0145 190.996 18.5045 190.439 22.0054 189.325C25.5063 188.211 27.8138 186.38 28.9277 183.834C30.2007 181.287 30.8373 177.387 30.8373 172.135V30.3206C30.8373 25.0682 30.2007 21.1687 28.9277 18.6221C27.8138 16.0755 25.5063 14.2451 22.0054 13.131C18.5045 12.0168 13.0145 11.4598 5.53526 11.4598V5.72989H74.2803C91.6257 5.72989 107.459 9.23148 121.781 16.2347C136.262 23.2378 147.799 33.9814 156.393 48.4652C165.145 62.9491 169.521 80.8549 169.521 102.183C169.521 122.715 165.383 140.143 157.109 154.468C148.993 168.633 137.933 179.218 123.93 186.221C109.926 193.224 94.1719 196.726 76.6673 196.726H5.53526ZM73.8029 186.937C88.6022 186.937 101.015 183.356 111.04 176.194C121.224 169.031 128.783 159.243 133.716 146.828C138.808 134.254 141.355 119.93 141.355 103.854C141.355 86.0277 138.331 70.4297 132.284 57.06C126.396 43.6903 118.36 33.4243 108.175 26.2619C97.991 19.0996 86.6131 15.5184 74.0416 15.5184C68.7903 15.5184 64.8915 15.9959 62.3454 16.9509C59.3219 17.5875 57.8102 19.6567 57.8102 23.1583V176.671C57.8102 180.491 59.0832 183.197 61.6293 184.789C64.1754 186.221 68.2333 186.937 73.8029 186.937Z" fill="#534FFC"/>
<path d="M268.159 145.634C265.772 164.256 260.76 178.104 253.121 187.176C245.642 196.089 236.094 200.546 224.477 200.546C215.566 200.546 207.769 197.92 201.085 192.667C194.561 187.256 189.468 179.695 185.808 169.986C182.307 160.118 180.557 148.658 180.557 135.607C180.557 122.874 182.387 111.255 186.047 100.75C189.707 90.0864 194.879 81.6508 201.562 75.4434C208.405 69.0769 216.441 65.8936 225.671 65.8936C239.038 65.8936 249.222 71.5439 256.224 82.8445C263.226 93.9859 266.727 108.709 266.727 127.012H203.711V127.49C203.711 144.202 206.257 157.651 211.349 167.838C216.441 177.865 223.841 182.879 233.548 182.879C239.754 182.879 245.403 180.014 250.496 174.284C255.747 168.554 259.725 159.004 262.43 145.634H268.159ZM225.671 75.9209C212.781 75.9209 205.541 89.6885 203.949 117.224H243.812C243.812 89.6885 237.765 75.9209 225.671 75.9209Z" fill="#534FFC"/>
<path d="M323.906 200.546C314.836 200.546 306.959 197.84 300.275 192.428C293.592 186.858 288.5 179.218 284.999 169.509C281.498 159.641 279.747 148.34 279.747 135.607C279.747 122.237 281.657 110.3 285.476 99.7954C289.295 89.2906 294.785 81.0141 301.946 74.9659C309.266 68.9177 317.939 65.8936 327.964 65.8936C337.99 65.8936 346.105 68.8381 352.311 74.7271C358.518 80.457 361.621 87.8581 361.621 96.9304C361.621 102.024 360.507 106.003 358.279 108.868C356.051 111.573 352.948 112.926 348.97 112.926C345.469 112.926 342.684 111.892 340.615 109.823C338.706 107.754 337.751 105.127 337.751 101.944C337.751 100.671 337.83 99.5566 337.99 98.6016C338.149 97.4875 338.308 96.5325 338.467 95.7367C339.104 92.5534 339.422 90.0068 339.422 88.0969C339.422 84.1178 338.387 81.0937 336.319 79.0246C334.25 76.9554 331.386 75.9209 327.726 75.9209C319.61 75.9209 313.483 80.6958 309.346 90.2456C305.368 99.7954 303.378 111.892 303.378 126.535C303.378 142.929 305.845 156.378 310.778 166.883C315.87 177.228 323.111 182.401 332.5 182.401C338.706 182.401 344.275 179.536 349.208 173.806C354.301 167.917 357.802 158.049 359.711 144.202H365.44C364.167 163.142 359.791 177.308 352.311 186.699C344.832 195.93 335.364 200.546 323.906 200.546Z" fill="#534FFC"/>
<path d="M459.547 145.634C457.16 164.256 452.147 178.104 444.509 187.176C437.029 196.089 427.482 200.546 415.865 200.546C406.953 200.546 399.156 197.92 392.472 192.667C385.948 187.256 380.856 179.695 377.196 169.986C373.695 160.118 371.944 148.658 371.944 135.607C371.944 122.874 373.774 111.255 377.434 100.75C381.095 90.0864 386.266 81.6508 392.95 75.4434C399.793 69.0769 407.829 65.8936 417.058 65.8936C430.425 65.8936 440.61 71.5439 447.612 82.8445C454.614 93.9859 458.114 108.709 458.114 127.012H395.098V127.49C395.098 144.202 397.644 157.651 402.736 167.838C407.829 177.865 415.228 182.879 424.935 182.879C431.142 182.879 436.791 180.014 441.883 174.284C447.134 168.554 451.113 159.004 453.818 145.634H459.547ZM417.058 75.9209C404.169 75.9209 396.928 89.6885 395.337 117.224H435.199C435.199 89.6885 429.152 75.9209 417.058 75.9209Z" fill="#534FFC"/>
<path d="M465.984 190.996C470.758 190.996 474.259 190.518 476.487 189.563C478.715 188.449 480.226 186.619 481.022 184.072C481.818 181.526 482.216 177.547 482.216 172.135V98.6016C482.216 92.076 481.977 87.7785 481.499 85.7094C481.022 83.4811 479.669 82.367 477.442 82.367C475.373 82.367 472.19 83.322 467.894 85.2319L465.507 79.7408L484.602 72.101L500.834 65.4161L505.369 68.9973V90.9618H506.085C512.132 82.6853 518.02 76.4779 523.749 72.3397C529.478 68.0423 536.161 65.8936 543.8 65.8936C552.234 65.8936 558.678 68.9177 563.134 74.9659C567.749 80.8549 570.056 89.3702 570.056 100.512V172.135C570.056 177.547 570.454 181.526 571.25 184.072C572.046 186.619 573.478 188.449 575.547 189.563C577.774 190.518 581.196 190.996 585.811 190.996V196.726H532.342V190.996C536.639 190.996 539.742 190.518 541.651 189.563C543.72 188.449 545.073 186.619 545.709 184.072C546.505 181.526 546.903 177.547 546.903 172.135V101.944C546.903 89.0518 542.208 82.6057 532.82 82.6057C528.046 82.6057 523.431 84.1974 518.975 87.3806C514.678 90.4047 510.143 94.9409 505.369 100.989V172.135C505.369 177.547 505.687 181.526 506.324 184.072C507.12 186.619 508.472 188.449 510.382 189.563C512.451 190.518 515.633 190.996 519.93 190.996V196.726H465.984V190.996Z" fill="#534FFC"/>
<path d="M660.1 143.247C660.1 162.665 657.792 177.069 653.177 186.46C648.563 195.85 640.606 200.546 629.308 200.546C619.601 200.546 612.44 197.203 607.825 190.518C603.21 183.674 600.903 172.135 600.903 155.9V79.9795H584.194V71.146C592.946 70.9868 599.948 67.8036 605.199 61.5962C610.451 55.3888 613.713 46.6348 614.986 35.3342H623.579V70.191H652.223V79.9795H624.056V149.693C624.056 161.471 624.932 170.305 626.682 176.194C628.592 182.083 632.172 185.027 637.423 185.027C642.834 185.027 646.812 181.605 649.358 174.761C652.064 167.917 653.416 157.412 653.416 143.247H660.1Z" fill="#534FFC"/>
<path d="M663.615 190.996C671.094 190.996 676.584 190.439 680.085 189.325C683.586 188.211 685.893 186.38 687.007 183.834C688.28 181.287 688.917 177.387 688.917 172.135V30.3206C688.917 25.0682 688.28 21.1687 687.007 18.6221C685.893 16.0755 683.586 14.2451 680.085 13.131C676.584 12.0168 671.094 11.4598 663.615 11.4598V5.72989H733.792C755.275 5.72989 771.825 10.1865 783.441 19.0996C795.058 28.0127 800.866 41.5416 800.866 59.6862C800.866 78.1492 795.138 92.2351 783.68 101.944C772.223 111.494 757.423 116.269 739.282 116.269C731.326 116.269 723.449 114.836 715.651 111.971V172.135C715.651 177.387 716.288 181.287 717.561 183.834C718.834 186.38 721.3 188.211 724.96 189.325C728.62 190.439 734.349 190.996 742.147 190.996V196.726H663.615V190.996ZM736.418 105.525C748.512 105.525 757.821 101.387 764.346 93.1105C770.87 84.6749 774.132 73.5334 774.132 59.6862C774.132 45.3615 770.552 34.4589 763.391 26.9782C756.389 19.3383 746.921 15.5184 734.986 15.5184C729.416 15.5184 724.403 16.3938 719.948 18.1446C717.083 19.2588 715.651 21.4075 715.651 24.5907V101.467C722.494 104.172 729.416 105.525 736.418 105.525Z" fill="#534FFC"/>
<path d="M904.264 169.748C903.468 190.28 896.068 200.546 882.065 200.546C867.584 200.546 860.343 190.121 860.343 169.27V164.973C857.638 176.273 853.182 185.027 846.976 191.235C840.929 197.442 833.609 200.546 825.016 200.546C816.741 200.546 810.217 197.92 805.443 192.667C800.828 187.256 798.52 180.491 798.52 172.374C798.52 163.62 801.226 156.06 806.636 149.693C812.047 143.167 818.491 137.756 825.971 133.458C833.609 129.161 843.396 124.307 855.331 118.895L860.343 116.746V102.899C860.343 93.0309 858.752 85.9482 855.569 81.6508C852.546 77.3534 848.01 75.2047 841.963 75.2047C837.189 75.2047 833.291 76.3984 830.267 78.7858C827.403 81.0141 825.971 84.0382 825.971 87.8581C825.971 89.2906 826.209 90.7231 826.687 92.1555C827.164 93.588 827.482 94.4634 827.642 94.7817C828.756 97.3283 829.312 99.7158 829.312 101.944C829.312 105.286 828.278 107.992 826.209 110.061C824.141 111.971 821.276 112.926 817.616 112.926C813.479 112.926 810.217 111.573 807.83 108.868C805.602 106.162 804.488 102.581 804.488 98.1242C804.488 92.2351 806.238 86.8236 809.739 81.8895C813.399 76.9554 818.332 73.0559 824.539 70.191C830.904 67.1669 837.985 65.6548 845.783 65.6548C857.558 65.6548 866.708 68.9973 873.233 75.6821C879.916 82.2078 883.258 91.8372 883.258 104.57V175C883.258 180.571 883.736 184.391 884.69 186.46C885.804 188.529 887.396 189.563 889.464 189.563C895.193 189.563 898.296 182.958 898.774 169.748H904.264ZM834.325 182.401C839.417 182.401 844.271 179.934 848.886 175C853.501 170.066 857.32 162.665 860.343 152.797V124.625C847.931 130.991 838.303 137.278 831.461 143.486C824.777 149.534 821.435 157.015 821.435 165.928C821.435 171.021 822.549 175.08 824.777 178.104C827.005 180.969 830.188 182.401 834.325 182.401Z" fill="#534FFC"/>
<path d="M975.841 65.8936C979.979 65.8936 983.161 67.0077 985.389 69.236C987.617 71.4643 988.731 74.568 988.731 78.5471C988.731 83.0036 987.538 86.6644 985.151 89.5293C982.923 92.3943 980.218 93.8267 977.035 93.8267C974.966 93.8267 973.295 93.5084 972.022 92.8718C970.908 92.0759 969.476 90.7231 967.726 88.8131C966.134 87.2215 964.861 86.1869 963.907 85.7094C963.111 85.0728 961.997 84.7544 960.565 84.7544C957.7 84.7544 954.756 86.744 951.733 90.7231C948.709 94.543 946.004 100.034 943.617 107.196V170.703C943.617 176.432 944.174 180.65 945.288 183.356C946.561 186.062 948.948 187.972 952.449 189.086C955.95 190.2 961.44 190.757 968.919 190.757V196.726H904.471V190.996C909.245 190.996 912.746 190.518 914.973 189.563C917.201 188.449 918.713 186.619 919.509 184.072C920.304 181.526 920.702 177.547 920.702 172.135V98.6016C920.702 92.076 920.463 87.7785 919.986 85.7094C919.509 83.4811 918.156 82.367 915.928 82.367C913.859 82.367 910.677 83.322 906.38 85.2319L903.993 79.7408L923.089 72.101L939.321 65.4161L943.617 68.9973V91.9168H944.333C948.152 84.7544 952.847 78.6266 958.416 73.5334C963.986 68.4402 969.794 65.8936 975.841 65.8936Z" fill="#534FFC"/>
<path d="M1094.25 169.748C1093.46 190.28 1086.06 200.546 1072.05 200.546C1057.57 200.546 1050.33 190.121 1050.33 169.27V164.973C1047.63 176.273 1043.17 185.027 1036.96 191.235C1030.92 197.442 1023.6 200.546 1015 200.546C1006.73 200.546 1000.21 197.92 995.432 192.667C990.817 187.256 988.509 180.491 988.509 172.374C988.509 163.62 991.214 156.06 996.625 149.693C1002.04 143.167 1008.48 137.756 1015.96 133.458C1023.6 129.161 1033.38 124.307 1045.32 118.895L1050.33 116.746V102.899C1050.33 93.0309 1048.74 85.9482 1045.56 81.6508C1042.53 77.3534 1038 75.2047 1031.95 75.2047C1027.18 75.2047 1023.28 76.3984 1020.26 78.7858C1017.39 81.0141 1015.96 84.0382 1015.96 87.8581C1015.96 89.2906 1016.2 90.7231 1016.68 92.1555C1017.15 93.588 1017.47 94.4634 1017.63 94.7817C1018.74 97.3283 1019.3 99.7158 1019.3 101.944C1019.3 105.286 1018.27 107.992 1016.2 110.061C1014.13 111.971 1011.27 112.926 1007.61 112.926C1003.47 112.926 1000.21 111.573 997.818 108.868C995.591 106.162 994.477 102.581 994.477 98.1242C994.477 92.2351 996.227 86.8236 999.728 81.8895C1003.39 76.9554 1008.32 73.0559 1014.53 70.191C1020.89 67.1669 1027.97 65.6548 1035.77 65.6548C1047.55 65.6548 1056.7 68.9973 1063.22 75.6821C1069.91 82.2078 1073.25 91.8372 1073.25 104.57V175C1073.25 180.571 1073.72 184.391 1074.68 186.46C1075.79 188.529 1077.38 189.563 1079.45 189.563C1085.18 189.563 1088.29 182.958 1088.76 169.748H1094.25ZM1024.31 182.401C1029.41 182.401 1034.26 179.934 1038.87 175C1043.49 170.066 1047.31 162.665 1050.33 152.797V124.625C1037.92 130.991 1028.29 137.278 1021.45 143.486C1014.77 149.534 1011.42 157.015 1011.42 165.928C1011.42 171.021 1012.54 175.08 1014.77 178.104C1016.99 180.969 1020.18 182.401 1024.31 182.401Z" fill="#534FFC"/>
<path d="M1207.1 187.176L1171.78 200.546L1166.76 196.487V176.91H1165.81C1162.63 184.231 1158.25 190.041 1152.68 194.338C1147.27 198.477 1140.82 200.546 1133.34 200.546C1125.87 200.546 1119.34 197.92 1113.77 192.667C1108.2 187.415 1103.91 180.014 1100.88 170.464C1097.86 160.914 1096.35 149.852 1096.35 137.278C1096.35 123.431 1098.1 111.096 1101.6 100.273C1105.26 89.4498 1110.35 81.0141 1116.87 74.9659C1123.56 68.9177 1131.2 65.8936 1139.79 65.8936C1145.68 65.8936 1150.93 67.0873 1155.54 69.4748C1160.32 71.8622 1164.06 75.1251 1166.76 79.2633V34.618C1166.76 28.729 1166.52 24.7499 1166.05 22.6808C1165.73 20.6116 1164.61 19.5771 1162.7 19.5771C1160.8 19.5771 1157.45 20.7708 1152.68 23.1583L1150.29 18.1446L1186.81 0L1189.92 3.34243V168.315C1189.92 174.682 1190.16 178.979 1190.63 181.207C1191.27 183.276 1192.78 184.311 1195.17 184.311C1196.92 184.311 1200.18 183.436 1204.95 181.685L1207.1 187.176ZM1143.37 183.834C1148.3 183.834 1152.6 182.242 1156.26 179.059C1159.92 175.716 1163.42 171.021 1166.76 164.973V120.805C1166.76 108.39 1164.85 98.2037 1161.03 90.2456C1157.37 82.2874 1151.96 78.3083 1144.8 78.3083C1136.85 78.3083 1130.88 83.2424 1126.9 93.1105C1122.92 102.819 1120.93 115.632 1120.93 131.548C1120.93 147.465 1122.76 160.198 1126.42 169.748C1130.24 179.138 1135.89 183.834 1143.37 183.834Z" fill="#534FFC"/>
<path d="M1261.31 200.546C1251.13 200.546 1242.13 197.76 1234.34 192.19C1226.54 186.46 1220.49 178.581 1216.2 168.554C1212.06 158.367 1209.99 146.828 1209.99 133.936C1209.99 121.044 1211.98 109.425 1215.96 99.0791C1220.09 88.7335 1226.06 80.6162 1233.86 74.7271C1241.66 68.8381 1250.81 65.8936 1261.31 65.8936C1271.49 65.8936 1280.41 68.7585 1288.04 74.4884C1295.84 80.0591 1301.89 87.9377 1306.18 98.1242C1310.48 108.151 1312.63 119.611 1312.63 132.503C1312.63 145.396 1310.56 157.015 1306.42 167.36C1302.29 177.706 1296.32 185.823 1288.52 191.712C1280.88 197.601 1271.81 200.546 1261.31 200.546ZM1264.89 190.041C1272.69 190.041 1278.58 185.744 1282.55 177.149C1286.53 168.554 1288.52 158.367 1288.52 146.589C1288.52 135.13 1287.33 124.068 1284.94 113.404C1282.71 102.581 1279.29 93.7472 1274.68 86.9031C1270.06 79.9 1264.41 76.3984 1257.73 76.3984C1249.77 76.3984 1243.81 80.6958 1239.83 89.2906C1235.85 97.8854 1233.86 108.072 1233.86 119.85C1233.86 131.31 1234.97 142.451 1237.2 153.274C1239.59 163.938 1243.09 172.772 1247.7 179.775C1252.48 186.619 1258.21 190.041 1264.89 190.041Z" fill="#534FFC"/>
<path d="M1396.22 174.761C1399.56 181.287 1402.82 185.664 1406.01 187.892C1409.19 189.961 1413.49 190.996 1418.9 190.996V196.726H1364.24V190.996C1368.69 190.996 1371.79 190.757 1373.54 190.28C1375.29 189.643 1376.17 188.608 1376.17 187.176C1376.17 185.903 1375.37 183.754 1373.78 180.73C1372.35 177.706 1371.4 175.716 1370.92 174.761L1355.64 144.679L1341.08 174.523C1339.81 177.228 1338.69 179.695 1337.74 181.924C1336.78 183.993 1336.31 185.584 1336.31 186.699C1336.31 188.29 1337.18 189.404 1338.93 190.041C1340.84 190.678 1344.1 190.996 1348.72 190.996V196.726H1306.47V190.996C1312.36 190.996 1316.97 189.961 1320.31 187.892C1323.66 185.823 1327 181.446 1330.34 174.761L1350.63 134.413L1329.39 92.1555C1326.04 85.6298 1322.78 81.3324 1319.6 79.2633C1316.58 77.035 1312.6 75.9209 1307.66 75.9209V70.191H1360.18V75.9209C1356.04 75.9209 1353.18 76.1596 1351.58 76.6371C1349.99 77.1146 1349.2 78.0696 1349.2 79.5021C1349.2 81.412 1350.95 85.6298 1354.45 92.1555L1368.29 119.372L1382.38 92.1555C1383.97 89.2906 1385.24 86.744 1386.2 84.5157C1387.31 82.2874 1387.87 80.6162 1387.87 79.5021C1387.87 78.0696 1386.99 77.1146 1385.24 76.6371C1383.49 76.1596 1380.55 75.9209 1376.41 75.9209V70.191H1415.79V75.9209C1410.7 75.9209 1406.48 77.035 1403.14 79.2633C1399.8 81.3324 1396.46 85.5503 1393.12 91.9168L1373.31 129.4L1396.22 174.761Z" fill="#534FFC"/>
</svg>