<svg id="Layer_1" data-name="Layer 1" xmlns="http://www.w3.org/2000/svg" viewBox="0 0 382.59 130.7"><title>Zoho logo</title><path d="M363.56,432.51a21.6,21.6,0,0,1-8.72-1.86h0l-60.64-27a21.57,21.57,0,0,1-10.91-28.42l27-60.64a21.57,21.57,0,0,1,28.42-10.91l60.64,27a21.57,21.57,0,0,1,10.91,28.42l-27,60.64A21.59,21.59,0,0,1,363.56,432.51Zm-3.68-13.23a9.13,9.13,0,0,0,12-4.59l27-60.64a9.13,9.13,0,0,0-4.59-12l-60.67-27a9.13,9.13,0,0,0-12,4.59l-27,60.64a9.13,9.13,0,0,0,4.59,12Z" transform="translate(-192.7 -301.8)" style="fill:#089949"/><path d="M553.77,432.54h-66.4A21.56,21.56,0,0,1,465.85,411v-66.4a21.56,21.56,0,0,1,21.53-21.53h66.4a21.56,21.56,0,0,1,21.53,21.53V411A21.56,21.56,0,0,1,553.77,432.54Zm-66.4-97a9.12,9.12,0,0,0-9.1,9.1V411a9.12,9.12,0,0,0,9.1,9.1h66.4a9.12,9.12,0,0,0,9.1-9.1v-66.4a9.12,9.12,0,0,0-9.1-9.1Z" transform="translate(-192.7 -301.8)" style="fill:#f9b21d"/><path d="M305.12,356.79l-8.94,20c-.11.23-.23.42-.34.61l3.49,21.53a9.09,9.09,0,0,1-7.5,10.42L226.26,420a9.19,9.19,0,0,1-6.78-1.59,8.93,8.93,0,0,1-3.64-5.91L205.22,346.9a9.19,9.19,0,0,1,1.59-6.78,8.93,8.93,0,0,1,5.91-3.64l65.56-10.61a9.59,9.59,0,0,1,1.44-.11,9.14,9.14,0,0,1,9,7.66l3.52,21.68,9.25-20.73-.49-2.92a21.54,21.54,0,0,0-24.67-17.81l-65.56,10.61a21.07,21.07,0,0,0-14,8.6,21.37,21.37,0,0,0-3.79,16l10.61,65.56a21.35,21.35,0,0,0,8.64,14,21.1,21.1,0,0,0,12.54,4.06,21.94,21.94,0,0,0,3.49-.27l65.56-10.61A21.54,21.54,0,0,0,311.64,397Z" transform="translate(-192.7 -301.8)" style="fill:#e42527"/><path d="M383.76,388.09l9.63-21.56-2.73-20a9.07,9.07,0,0,1,7.81-10.19l65.79-8.94c.42,0,.83-.08,1.25-.08a9.15,9.15,0,0,1,5.5,1.86c.3.23.57.49.83.72a21.68,21.68,0,0,1,11-6.22,21,21,0,0,0-4.36-4.43A21.43,21.43,0,0,0,462.59,315l-65.87,8.94a21.2,21.2,0,0,0-14.21,8.3,21.43,21.43,0,0,0-4.21,15.92Z" transform="translate(-192.7 -301.8)" style="fill:#226db4"/><path d="M495.71,399.19l-8.64-63.67a9.07,9.07,0,0,0-8.75,9.06v18.68l5.12,37.59a9.07,9.07,0,0,1-7.81,10.19L409.83,420a9.07,9.07,0,0,1-10.19-7.81l-3-22.32L387,411.44l.34,2.43a21.54,21.54,0,0,0,21.3,18.61,25.8,25.8,0,0,0,3-.19l65.71-8.87a21.2,21.2,0,0,0,14.21-8.3A21.43,21.43,0,0,0,495.71,399.19Z" transform="translate(-192.7 -301.8)" style="fill:#226db4"/></svg>
